<?xml version="1.0" standalone="no"?>
<!DOCTYPE svg PUBLIC "-//W3C//DTD SVG 20010904//EN"
 "http://www.w3.org/TR/2001/REC-SVG-20010904/DTD/svg10.dtd">
<svg version="1.0" xmlns="http://www.w3.org/2000/svg"
 width="260.000000pt" height="260.000000pt" viewBox="0 0 260.000000 260.000000"
 preserveAspectRatio="xMidYMid meet">
<metadata>
Created by potrace 1.11, written by Peter Selinger 2001-2013
</metadata>
<g transform="translate(0.000000,260.000000) scale(0.100000,-0.100000)"
fill="#000000" stroke="none">
<path d="M173 2339 c-7 -7 -6 -25 4 -57 8 -26 16 -51 17 -57 11 -44 28 -103
33 -115 3 -8 7 -19 8 -25 0 -5 4 -17 7 -25 3 -8 18 -52 32 -98 65 -199 186
-354 336 -429 30 -16 58 -32 61 -36 3 -4 10 -7 15 -6 8 2 40 -5 124 -29 29 -9
158 -7 215 2 33 6 46 3 65 -13 14 -11 30 -24 35 -29 6 -4 18 -11 28 -15 9 -3
17 -11 17 -17 0 -5 6 -10 13 -10 8 0 22 -9 32 -20 23 -25 27 -25 44 1 15 25
18 22 -124 129 -32 25 -67 52 -75 60 -21 19 -44 38 -145 120 -44 35 -87 72
-96 82 -9 10 -19 18 -23 18 -10 0 -63 48 -182 164 -61 59 -118 112 -125 117
-8 5 -10 9 -6 9 12 0 58 -30 107 -71 14 -12 45 -35 70 -52 24 -17 51 -37 60
-44 8 -7 49 -37 90 -67 41 -30 80 -58 85 -63 46 -37 176 -133 180 -133 3 0 18
-11 33 -25 30 -28 44 -28 49 1 22 123 -35 307 -133 432 -38 48 -118 118 -164
143 -14 8 -33 20 -42 28 -10 8 -18 10 -18 6 0 -4 -9 0 -21 11 -12 10 -24 18
-28 18 -6 -1 -15 1 -61 16 -23 8 -65 19 -100 26 -8 2 -33 6 -55 9 -22 3 -56 8
-75 12 -19 4 -47 7 -62 6 -16 0 -28 3 -28 6 0 4 -20 6 -45 6 -25 0 -45 2 -45
5 0 3 -15 5 -32 4 -18 0 -40 3 -49 7 -9 5 -21 3 -26 -2z"/>
<path d="M2400 2338 c-54 -9 -122 -19 -170 -23 -19 -2 -35 -4 -35 -5 0 -2 -15
-4 -90 -14 -27 -4 -62 -9 -76 -11 -55 -10 -170 -54 -234 -90 -71 -39 -195
-149 -195 -171 0 -8 -4 -14 -9 -14 -12 0 -54 -76 -76 -137 -9 -26 -20 -55 -23
-63 -8 -22 -7 -20 -17 -80 -10 -70 -7 -132 8 -142 6 -4 30 8 53 28 23 19 47
34 53 34 5 0 14 6 18 13 4 8 21 22 38 33 16 10 37 25 45 31 8 7 85 64 170 127
85 64 162 122 171 131 9 8 19 15 22 15 7 0 36 23 63 48 8 7 14 9 14 5 0 -5
-51 -58 -113 -119 -120 -116 -143 -137 -222 -199 -27 -22 -52 -42 -55 -45 -9
-9 -75 -64 -120 -100 -24 -19 -49 -41 -56 -47 -7 -7 -15 -13 -18 -13 -6 0 -21
-12 -90 -72 -17 -15 -34 -28 -37 -28 -3 0 -18 -11 -33 -25 -23 -21 -25 -28
-16 -46 13 -24 15 -23 132 63 65 48 68 49 115 41 39 -7 188 -9 188 -3 0 1 14
4 30 6 76 12 215 67 215 85 0 5 6 9 13 9 19 0 111 80 159 139 21 25 101 158
105 174 2 7 19 59 39 117 20 58 37 112 39 121 2 9 13 49 25 89 12 40 23 80 25
89 2 9 6 23 10 32 8 22 -11 27 -65 17z"/>
<path d="M1188 1241 c-13 -11 -57 -42 -98 -70 -58 -40 -76 -48 -91 -40 -48 25
-243 11 -334 -24 -53 -21 -154 -76 -173 -94 -10 -10 -36 -35 -58 -55 -92 -87
-164 -216 -208 -373 -9 -33 -20 -67 -23 -75 -3 -8 -7 -22 -8 -30 -2 -8 -15
-55 -30 -105 -32 -105 -36 -127 -27 -121 4 2 37 7 74 10 37 4 80 9 95 12 15 3
42 7 58 9 17 2 59 6 95 10 36 4 67 10 70 14 3 3 16 6 30 5 14 0 30 3 35 7 6 4
12 7 15 6 14 -3 100 27 100 35 0 5 4 7 9 3 10 -6 80 30 147 76 117 80 236 263
248 382 2 15 6 30 10 34 10 10 7 151 -4 158 -6 3 -17 0 -25 -7 -29 -26 -44
-38 -49 -38 -3 0 -14 -7 -23 -15 -10 -8 -106 -80 -213 -160 -107 -80 -202
-151 -211 -158 -8 -6 -23 -16 -31 -22 -9 -5 -35 -25 -57 -43 -23 -19 -41 -30
-41 -25 0 11 215 221 265 258 22 16 42 32 45 35 3 3 48 41 100 85 52 44 97 83
98 87 2 5 8 8 13 8 6 0 20 9 32 21 12 11 65 54 118 95 76 59 96 80 92 95 -8
29 -18 31 -45 10z"/>
<path d="M1326 1238 c-14 -19 -13 -22 12 -42 15 -11 29 -23 32 -26 3 -3 32
-25 65 -50 33 -24 71 -54 85 -66 14 -12 95 -79 180 -149 192 -159 166 -136
288 -256 56 -56 102 -106 102 -111 0 -5 -11 2 -24 16 -13 15 -26 26 -30 26 -6
0 -38 24 -68 52 -10 10 -21 18 -25 18 -5 0 -19 9 -33 20 -27 22 -122 94 -161
123 -13 9 -87 65 -164 122 -77 58 -143 105 -147 105 -7 0 -10 -23 -7 -46 0 -4
-5 -11 -13 -15 -7 -5 -8 -9 -3 -9 6 0 10 -12 9 -27 -1 -27 19 -141 26 -150 2
-2 3 -6 5 -10 30 -110 123 -239 230 -320 82 -62 232 -121 355 -138 19 -3 53
-8 75 -12 22 -3 54 -7 70 -9 17 -1 47 -5 68 -8 60 -9 110 -16 140 -19 28 -3
28 -2 21 32 -3 20 -7 42 -7 49 0 6 -4 12 -9 12 -4 0 -8 8 -8 18 0 9 -15 68
-34 130 -19 61 -32 112 -29 112 3 0 1 6 -4 13 -6 6 -16 30 -23 52 -40 123
-144 267 -250 346 -43 32 -137 81 -180 94 -80 24 -265 40 -285 25 -22 -16 -56
-18 -69 -4 -8 8 -17 14 -21 14 -3 0 -11 5 -18 10 -7 6 -40 31 -74 55 -62 44
-62 45 -77 23z"/>
</g>
</svg>
